<?xml version="1.0" standalone="no"?>
<!DOCTYPE svg PUBLIC "-//W3C//DTD SVG 20010904//EN"
 "http://www.w3.org/TR/2001/REC-SVG-20010904/DTD/svg10.dtd">
<svg version="1.0" xmlns="http://www.w3.org/2000/svg"
 width="357.000000pt" height="357.000000pt" viewBox="0 0 357.000000 357.000000"
 preserveAspectRatio="xMidYMid meet">
<metadata>
Created by potrace 1.11, written by Peter Selinger 2001-2013
</metadata>
<g transform="translate(0.000000,357.000000) scale(0.100000,-0.100000)"
fill="#000000" stroke="none">
<path d="M10 3485 c-4 -5 -7 -775 -6 -1710 l1 -1700 1765 -1 c1577 -2 1767 0
1782 14 17 14 18 108 18 1696 0 1040 -4 1687 -10 1696 -8 13 -218 15 -1775 15
-1168 0 -1769 -3 -1775 -10z m3340 -205 c5 -8 10 -113 10 -232 l0 -217 -32 13
c-18 8 -68 17 -111 20 -75 6 -178 19 -242 31 -16 4 -95 19 -175 35 -307 60
-365 61 -448 7 -44 -29 -260 -358 -359 -549 -32 -61 -27 -154 12 -226 33 -60
146 -172 204 -202 124 -63 274 -23 486 130 44 31 96 65 115 75 48 25 114 23
185 -4 74 -30 195 -36 280 -16 33 8 66 14 73 15 9 0 12 -35 12 -141 0 -77 -4
-138 -9 -135 -4 3 -34 -2 -66 -11 -57 -16 -82 -35 -153 -117 -30 -34 -83 -63
-220 -122 -47 -19 -88 -64 -101 -111 -14 -47 6 -150 44 -229 57 -118 143 -193
290 -254 112 -46 147 -64 183 -98 l32 -30 0 -226 c0 -124 -3 -226 -7 -226 -5
0 -46 12 -93 26 -110 32 -148 38 -245 38 -135 -1 -226 -59 -301 -191 -29 -53
-29 -53 -79 -54 -167 -2 -467 0 -471 3 -2 3 -6 35 -9 72 -7 93 -25 126 -73
126 -35 0 -122 -34 -177 -69 -27 -17 -81 -41 -120 -52 -38 -12 -91 -34 -116
-50 l-46 -29 -439 0 c-715 -1 -641 -4 -648 23 -3 13 -22 41 -42 63 -74 78
-114 137 -130 190 -13 47 -24 62 -84 112 l-68 57 -1 284 -1 283 28 -7 c52 -13
62 -14 91 -5 17 5 78 38 136 75 211 132 254 136 365 35 71 -65 190 -148 237
-166 34 -14 74 -19 138 -19 80 0 97 3 155 31 82 39 168 109 342 281 89 87 104
125 82 201 -29 100 -86 152 -282 252 -107 55 -129 71 -179 129 -84 98 -233
239 -277 262 -51 27 -113 27 -191 -1 -80 -28 -132 -39 -218 -46 -125 -11 -163
-35 -296 -194 -49 -58 -98 -114 -110 -124 l-21 -19 0 244 0 245 63 40 c34 22
80 49 102 58 274 123 315 156 315 253 0 53 -8 77 -78 223 -34 72 -61 145 -86
235 -6 20 -2 20 1405 20 1240 0 1411 -2 1419 -15z"/>
<path d="M1360 3226 c-51 -13 -199 -107 -245 -156 -26 -27 -30 -39 -30 -88 0
-57 6 -72 77 -207 15 -27 34 -84 42 -125 25 -118 60 -151 164 -151 105 -1 162
37 207 136 36 81 72 103 178 110 77 6 122 58 115 135 -7 66 -31 92 -133 141
-47 22 -103 59 -135 90 -118 110 -166 134 -240 115z"/>
<path d="M2282 1388 c-47 -13 -74 -60 -69 -120 10 -122 124 -184 216 -119 62
44 58 126 -11 202 -36 41 -79 52 -136 37z"/>
<path d="M636 1095 c-111 -45 -184 -108 -223 -192 -13 -29 -22 -61 -19 -71 11
-32 159 -164 221 -195 57 -28 165 -3 256 59 46 32 60 63 65 144 3 67 -25 210
-48 237 -39 47 -159 56 -252 18z"/>
<path d="M1518 1035 c-90 -34 -186 -122 -288 -264 -89 -126 -100 -165 -59
-223 25 -35 61 -45 189 -53 161 -11 192 -10 230 10 90 45 170 140 172 202 2
80 -67 266 -116 312 -28 26 -83 33 -128 16z"/>
<path d="M2189 970 c-52 -15 -91 -42 -105 -76 -13 -30 -13 -38 1 -63 23 -45
94 -101 127 -101 71 0 178 82 178 137 0 62 -121 124 -201 103z"/>
</g>
</svg>
